<svg id="visual" viewBox="0 0 900 600" width="900" height="600" xmlns="http://www.w3.org/2000/svg" xmlns:xlink="http://www.w3.org/1999/xlink" version="1.1"><g stroke-width="1" stroke-linejoin="bevel"><path d="M459 298L364 200L382 303Z" fill="#000000" stroke="#000000"></path><path d="M459 298L479 211L364 200Z" fill="#000000" stroke="#000000"></path><path d="M364 200L320 196L382 303Z" fill="#000000" stroke="#000000"></path><path d="M320 196L300 327L382 303Z" fill="#000000" stroke="#000000"></path><path d="M465 424L562 337L459 298Z" fill="#000000" stroke="#000000"></path><path d="M574 157L533 135L479 211Z" fill="#000000" stroke="#000000"></path><path d="M479 211L447 81L364 200Z" fill="#000000" stroke="#000000"></path><path d="M364 200L329 95L320 196Z" fill="#000000" stroke="#000000"></path><path d="M533 135L447 81L479 211Z" fill="#000000" stroke="#000000"></path><path d="M465 424L459 298L382 303Z" fill="#000000" stroke="#000000"></path><path d="M459 298L562 337L479 211Z" fill="#000000" stroke="#000000"></path><path d="M447 81L329 95L364 200Z" fill="#000000" stroke="#000000"></path><path d="M320 196L200 187L300 327Z" fill="#000000" stroke="#000000"></path><path d="M562 337L574 157L479 211Z" fill="#000000" stroke="#000000"></path><path d="M470 0L374 0L447 81Z" fill="#000000" stroke="#000000"></path><path d="M438 443L465 424L382 303Z" fill="#000000" stroke="#000000"></path><path d="M317 468L438 443L382 303Z" fill="#000000" stroke="#000000"></path><path d="M219 117L200 187L320 196Z" fill="#000000" stroke="#000000"></path><path d="M231 439L289 441L300 327Z" fill="#000000" stroke="#000000"></path><path d="M300 327L289 441L382 303Z" fill="#000000" stroke="#000000"></path><path d="M329 95L219 117L320 196Z" fill="#000000" stroke="#000000"></path><path d="M317 468L370 482L438 443Z" fill="#000000" stroke="#000000"></path><path d="M289 441L317 468L382 303Z" fill="#000000" stroke="#000000"></path><path d="M447 81L374 0L329 95Z" fill="#000000" stroke="#000000"></path><path d="M329 95L245 0L219 117Z" fill="#000000" stroke="#000000"></path><path d="M470 0L447 81L533 135Z" fill="#000000" stroke="#000000"></path><path d="M617 86L470 0L533 135Z" fill="#000000" stroke="#000000"></path><path d="M145 179L167 276L200 187Z" fill="#000000" stroke="#000000"></path><path d="M200 187L167 276L300 327Z" fill="#000000" stroke="#000000"></path><path d="M699 98L617 86L574 157Z" fill="#000000" stroke="#000000"></path><path d="M574 157L617 86L533 135Z" fill="#000000" stroke="#000000"></path><path d="M374 0L339 0L329 95Z" fill="#000000" stroke="#000000"></path><path d="M465 424L588 443L562 337Z" fill="#000000" stroke="#000000"></path><path d="M562 337L699 312L574 157Z" fill="#000000" stroke="#000000"></path><path d="M577 456L588 443L465 424Z" fill="#000000" stroke="#000000"></path><path d="M577 456L465 424L526 546Z" fill="#000000" stroke="#000000"></path><path d="M526 546L465 424L438 443Z" fill="#000000" stroke="#000000"></path><path d="M167 276L231 439L300 327Z" fill="#000000" stroke="#000000"></path><path d="M289 441L213 462L317 468Z" fill="#000000" stroke="#000000"></path><path d="M59 131L145 179L219 117Z" fill="#000000" stroke="#000000"></path><path d="M219 117L145 179L200 187Z" fill="#000000" stroke="#000000"></path><path d="M656 432L562 337L588 443Z" fill="#000000" stroke="#000000"></path><path d="M656 432L699 312L562 337Z" fill="#000000" stroke="#000000"></path><path d="M339 0L245 0L329 95Z" fill="#000000" stroke="#000000"></path><path d="M85 367L213 462L231 439Z" fill="#000000" stroke="#000000"></path><path d="M231 439L213 462L289 441Z" fill="#000000" stroke="#000000"></path><path d="M267 600L408 600L370 482Z" fill="#000000" stroke="#000000"></path><path d="M699 312L719 228L574 157Z" fill="#000000" stroke="#000000"></path><path d="M577 456L656 432L588 443Z" fill="#000000" stroke="#000000"></path><path d="M719 228L699 98L574 157Z" fill="#000000" stroke="#000000"></path><path d="M617 86L623 0L470 0Z" fill="#000000" stroke="#000000"></path><path d="M658 0L623 0L617 86Z" fill="#000000" stroke="#000000"></path><path d="M469 600L438 443L370 482Z" fill="#000000" stroke="#000000"></path><path d="M469 600L526 546L438 443Z" fill="#000000" stroke="#000000"></path><path d="M577 456L575 600L656 432Z" fill="#000000" stroke="#000000"></path><path d="M699 98L658 0L617 86Z" fill="#000000" stroke="#000000"></path><path d="M56 293L85 367L167 276Z" fill="#000000" stroke="#000000"></path><path d="M167 276L85 367L231 439Z" fill="#000000" stroke="#000000"></path><path d="M267 600L370 482L317 468Z" fill="#000000" stroke="#000000"></path><path d="M408 600L469 600L370 482Z" fill="#000000" stroke="#000000"></path><path d="M526 546L575 600L577 456Z" fill="#000000" stroke="#000000"></path><path d="M145 179L56 293L167 276Z" fill="#000000" stroke="#000000"></path><path d="M0 237L56 293L145 179Z" fill="#000000" stroke="#000000"></path><path d="M719 228L761 97L699 98Z" fill="#000000" stroke="#000000"></path><path d="M699 98L791 0L658 0Z" fill="#000000" stroke="#000000"></path><path d="M832 194L761 97L719 228Z" fill="#000000" stroke="#000000"></path><path d="M104 0L59 131L219 117Z" fill="#000000" stroke="#000000"></path><path d="M164 600L267 600L213 462Z" fill="#000000" stroke="#000000"></path><path d="M213 462L267 600L317 468Z" fill="#000000" stroke="#000000"></path><path d="M469 600L575 600L526 546Z" fill="#000000" stroke="#000000"></path><path d="M245 0L104 0L219 117Z" fill="#000000" stroke="#000000"></path><path d="M0 97L0 237L59 131Z" fill="#000000" stroke="#000000"></path><path d="M59 131L0 237L145 179Z" fill="#000000" stroke="#000000"></path><path d="M56 293L0 335L85 367Z" fill="#000000" stroke="#000000"></path><path d="M836 319L719 228L699 312Z" fill="#000000" stroke="#000000"></path><path d="M836 319L832 194L719 228Z" fill="#000000" stroke="#000000"></path><path d="M836 319L699 312L833 447Z" fill="#000000" stroke="#000000"></path><path d="M85 367L99 517L213 462Z" fill="#000000" stroke="#000000"></path><path d="M0 491L99 517L85 367Z" fill="#000000" stroke="#000000"></path><path d="M575 600L740 514L656 432Z" fill="#000000" stroke="#000000"></path><path d="M833 447L699 312L656 432Z" fill="#000000" stroke="#000000"></path><path d="M0 237L0 335L56 293Z" fill="#000000" stroke="#000000"></path><path d="M794 600L756 509L740 514Z" fill="#000000" stroke="#000000"></path><path d="M740 514L756 509L656 432Z" fill="#000000" stroke="#000000"></path><path d="M99 517L164 600L213 462Z" fill="#000000" stroke="#000000"></path><path d="M0 335L0 382L85 367Z" fill="#000000" stroke="#000000"></path><path d="M104 0L0 97L59 131Z" fill="#000000" stroke="#000000"></path><path d="M900 79L791 0L761 97Z" fill="#000000" stroke="#000000"></path><path d="M761 97L791 0L699 98Z" fill="#000000" stroke="#000000"></path><path d="M0 600L139 600L99 517Z" fill="#000000" stroke="#000000"></path><path d="M99 517L139 600L164 600Z" fill="#000000" stroke="#000000"></path><path d="M756 509L833 447L656 432Z" fill="#000000" stroke="#000000"></path><path d="M575 600L720 600L740 514Z" fill="#000000" stroke="#000000"></path><path d="M756 509L900 487L833 447Z" fill="#000000" stroke="#000000"></path><path d="M104 0L0 0L0 97Z" fill="#000000" stroke="#000000"></path><path d="M0 382L0 491L85 367Z" fill="#000000" stroke="#000000"></path><path d="M900 315L900 195L832 194Z" fill="#000000" stroke="#000000"></path><path d="M832 194L900 79L761 97Z" fill="#000000" stroke="#000000"></path><path d="M900 315L832 194L836 319Z" fill="#000000" stroke="#000000"></path><path d="M900 437L900 315L836 319Z" fill="#000000" stroke="#000000"></path><path d="M900 195L900 79L832 194Z" fill="#000000" stroke="#000000"></path><path d="M720 600L794 600L740 514Z" fill="#000000" stroke="#000000"></path><path d="M833 447L900 437L836 319Z" fill="#000000" stroke="#000000"></path><path d="M900 487L900 437L833 447Z" fill="#000000" stroke="#000000"></path><path d="M794 600L900 487L756 509Z" fill="#000000" stroke="#000000"></path><path d="M900 79L900 0L791 0Z" fill="#000000" stroke="#000000"></path><path d="M0 491L0 600L99 517Z" fill="#000000" stroke="#000000"></path><path d="M794 600L900 600L900 487Z" fill="#000000" stroke="#000000"></path></g></svg>