<svg id="visual" viewBox="0 0 900 600" width="900" height="600" xmlns="http://www.w3.org/2000/svg" xmlns:xlink="http://www.w3.org/1999/xlink" version="1.1"><g stroke-width="1" stroke-linejoin="bevel"><path d="M490 329L418 431L516 401Z" fill="#141726" stroke="#141726"></path><path d="M418 431L473 464L516 401Z" fill="#121525" stroke="#121525"></path><path d="M490 329L397 293L418 431Z" fill="#111424" stroke="#111424"></path><path d="M321 487L416 487L418 431Z" fill="#141726" stroke="#141726"></path><path d="M418 431L416 487L473 464Z" fill="#111424" stroke="#111424"></path><path d="M570 515L600 419L516 401Z" fill="#121524" stroke="#121524"></path><path d="M516 401L614 318L490 329Z" fill="#121525" stroke="#121525"></path><path d="M570 515L516 401L473 464Z" fill="#161928" stroke="#161928"></path><path d="M614 318L536 233L490 329Z" fill="#151827" stroke="#151827"></path><path d="M490 329L536 233L397 293Z" fill="#111424" stroke="#111424"></path><path d="M600 419L614 318L516 401Z" fill="#111423" stroke="#111423"></path><path d="M271 408L321 487L418 431Z" fill="#151827" stroke="#151827"></path><path d="M509 600L473 464L416 487Z" fill="#161928" stroke="#161928"></path><path d="M509 600L570 515L473 464Z" fill="#141726" stroke="#141726"></path><path d="M332 236L308 275L397 293Z" fill="#131625" stroke="#131625"></path><path d="M397 293L271 408L418 431Z" fill="#101323" stroke="#101323"></path><path d="M308 275L271 408L397 293Z" fill="#111423" stroke="#111423"></path><path d="M433 166L332 236L397 293Z" fill="#111423" stroke="#111423"></path><path d="M536 233L433 166L397 293Z" fill="#111424" stroke="#111424"></path><path d="M674 508L675 408L600 419Z" fill="#121525" stroke="#121525"></path><path d="M600 419L675 408L614 318Z" fill="#121524" stroke="#121524"></path><path d="M321 487L417 600L416 487Z" fill="#121525" stroke="#121525"></path><path d="M417 600L509 600L416 487Z" fill="#141726" stroke="#141726"></path><path d="M570 515L674 508L600 419Z" fill="#161928" stroke="#161928"></path><path d="M614 318L566 174L536 233Z" fill="#141726" stroke="#141726"></path><path d="M536 233L566 174L433 166Z" fill="#111424" stroke="#111424"></path><path d="M699 278L566 174L614 318Z" fill="#131625" stroke="#131625"></path><path d="M509 600L576 600L570 515Z" fill="#151827" stroke="#151827"></path><path d="M576 600L674 508L570 515Z" fill="#161928" stroke="#161928"></path><path d="M675 408L699 278L614 318Z" fill="#101323" stroke="#101323"></path><path d="M786 299L699 278L675 408Z" fill="#111424" stroke="#111424"></path><path d="M195 230L175 328L308 275Z" fill="#101323" stroke="#101323"></path><path d="M308 275L175 328L271 408Z" fill="#141726" stroke="#141726"></path><path d="M173 513L266 600L321 487Z" fill="#161928" stroke="#161928"></path><path d="M321 487L266 600L417 600Z" fill="#141726" stroke="#141726"></path><path d="M195 230L308 275L332 236Z" fill="#111423" stroke="#111423"></path><path d="M173 513L321 487L271 408Z" fill="#121524" stroke="#121524"></path><path d="M175 328L167 426L271 408Z" fill="#131625" stroke="#131625"></path><path d="M170 134L195 230L332 236Z" fill="#101323" stroke="#101323"></path><path d="M566 174L519 85L433 166Z" fill="#121525" stroke="#121525"></path><path d="M433 166L374 82L332 236Z" fill="#121525" stroke="#121525"></path><path d="M638 111L519 85L566 174Z" fill="#151827" stroke="#151827"></path><path d="M519 85L374 82L433 166Z" fill="#151827" stroke="#151827"></path><path d="M167 426L173 513L271 408Z" fill="#101323" stroke="#101323"></path><path d="M699 278L693 163L566 174Z" fill="#111424" stroke="#111424"></path><path d="M576 600L694 600L674 508Z" fill="#121524" stroke="#121524"></path><path d="M801 425L786 299L675 408Z" fill="#151827" stroke="#151827"></path><path d="M693 163L638 111L566 174Z" fill="#151827" stroke="#151827"></path><path d="M173 513L213 600L266 600Z" fill="#151827" stroke="#151827"></path><path d="M801 425L675 408L674 508Z" fill="#151827" stroke="#151827"></path><path d="M699 278L789 228L693 163Z" fill="#141726" stroke="#141726"></path><path d="M436 0L328 65L374 82Z" fill="#121525" stroke="#121525"></path><path d="M374 82L328 65L332 236Z" fill="#111424" stroke="#111424"></path><path d="M167 426L130 523L173 513Z" fill="#141726" stroke="#141726"></path><path d="M173 513L138 600L213 600Z" fill="#101323" stroke="#101323"></path><path d="M175 328L116 422L167 426Z" fill="#141726" stroke="#141726"></path><path d="M93 285L116 422L175 328Z" fill="#151827" stroke="#151827"></path><path d="M826 529L801 425L674 508Z" fill="#151827" stroke="#151827"></path><path d="M780 95L683 112L693 163Z" fill="#151827" stroke="#151827"></path><path d="M693 163L683 112L638 111Z" fill="#111424" stroke="#111424"></path><path d="M507 0L436 0L519 85Z" fill="#151827" stroke="#151827"></path><path d="M116 422L130 523L167 426Z" fill="#121524" stroke="#121524"></path><path d="M786 299L789 228L699 278Z" fill="#131625" stroke="#131625"></path><path d="M900 322L789 228L786 299Z" fill="#111423" stroke="#111423"></path><path d="M122 173L93 285L195 230Z" fill="#111424" stroke="#111424"></path><path d="M195 230L93 285L175 328Z" fill="#121525" stroke="#121525"></path><path d="M0 600L138 600L130 523Z" fill="#121524" stroke="#121524"></path><path d="M328 65L170 134L332 236Z" fill="#151827" stroke="#151827"></path><path d="M694 600L770 600L674 508Z" fill="#121525" stroke="#121525"></path><path d="M507 0L519 85L609 0Z" fill="#111423" stroke="#111423"></path><path d="M519 85L436 0L374 82Z" fill="#111423" stroke="#111423"></path><path d="M328 65L273 0L170 134Z" fill="#131625" stroke="#131625"></path><path d="M609 0L519 85L638 111Z" fill="#151827" stroke="#151827"></path><path d="M0 483L130 523L116 422Z" fill="#111423" stroke="#111423"></path><path d="M130 523L138 600L173 513Z" fill="#131625" stroke="#131625"></path><path d="M170 134L122 173L195 230Z" fill="#151827" stroke="#151827"></path><path d="M770 600L826 529L674 508Z" fill="#151827" stroke="#151827"></path><path d="M801 425L900 365L786 299Z" fill="#121524" stroke="#121524"></path><path d="M690 0L609 0L638 111Z" fill="#111424" stroke="#111424"></path><path d="M690 0L638 111L683 112Z" fill="#121525" stroke="#121525"></path><path d="M436 0L273 0L328 65Z" fill="#111424" stroke="#111424"></path><path d="M170 134L91 75L122 173Z" fill="#151827" stroke="#151827"></path><path d="M900 209L780 95L789 228Z" fill="#141726" stroke="#141726"></path><path d="M789 228L780 95L693 163Z" fill="#161928" stroke="#161928"></path><path d="M900 487L900 365L801 425Z" fill="#111423" stroke="#111423"></path><path d="M900 365L900 322L786 299Z" fill="#121524" stroke="#121524"></path><path d="M780 95L690 0L683 112Z" fill="#111423" stroke="#111423"></path><path d="M826 529L900 487L801 425Z" fill="#111423" stroke="#111423"></path><path d="M900 600L900 487L826 529Z" fill="#151827" stroke="#151827"></path><path d="M0 307L0 379L93 285Z" fill="#111424" stroke="#111424"></path><path d="M93 285L0 379L116 422Z" fill="#151827" stroke="#151827"></path><path d="M273 0L204 0L170 134Z" fill="#141726" stroke="#141726"></path><path d="M0 207L0 307L93 285Z" fill="#121524" stroke="#121524"></path><path d="M0 207L93 285L122 173Z" fill="#141726" stroke="#141726"></path><path d="M0 379L0 483L116 422Z" fill="#121524" stroke="#121524"></path><path d="M900 322L900 209L789 228Z" fill="#161928" stroke="#161928"></path><path d="M780 95L814 0L690 0Z" fill="#111424" stroke="#111424"></path><path d="M204 0L91 75L170 134Z" fill="#101323" stroke="#101323"></path><path d="M0 106L0 207L122 173Z" fill="#121525" stroke="#121525"></path><path d="M770 600L900 600L826 529Z" fill="#131625" stroke="#131625"></path><path d="M0 483L0 600L130 523Z" fill="#141726" stroke="#141726"></path><path d="M900 98L814 0L780 95Z" fill="#131625" stroke="#131625"></path><path d="M900 209L900 98L780 95Z" fill="#151827" stroke="#151827"></path><path d="M204 0L92 0L91 75Z" fill="#121525" stroke="#121525"></path><path d="M91 75L0 106L122 173Z" fill="#161928" stroke="#161928"></path><path d="M0 0L0 106L91 75Z" fill="#101323" stroke="#101323"></path><path d="M900 98L900 0L814 0Z" fill="#111423" stroke="#111423"></path><path d="M92 0L0 0L91 75Z" fill="#141726" stroke="#141726"></path></g></svg>